<svg width="32" height="32" viewBox="0 0 32 32" fill="none" xmlns="http://www.w3.org/2000/svg">
<g clip-path="url(#clip0_28_9)">
<rect x="2" y="20.9779" width="26.6129" height="12.7025" transform="rotate(-45 2 20.9779)" fill="#FF8282"/>
<path d="M15.7371 18.808H14.1051V27H8.18512V4.76H15.8971C19.0331 4.76 21.3691 5.32533 22.9051 6.456C24.4625 7.58667 25.2411 9.32533 25.2411 11.672C25.2411 13.08 24.9105 14.2533 24.2491 15.192C23.6091 16.1307 22.5745 16.9733 21.1451 17.72L26.6811 27H20.0891L15.7371 18.808ZM14.1051 14.776H16.0891C18.1371 14.776 19.1611 13.7413 19.1611 11.672C19.1611 10.712 18.8731 10.008 18.2971 9.56C17.7425 9.112 16.8998 8.888 15.7691 8.888H14.1051V14.776Z" fill="#BC3F3F"/>
</g>
<defs>
<clipPath id="clip0_28_9">
<rect width="32" height="32" fill="white"/>
</clipPath>
</defs>
</svg>
