<svg width="40" height="40" viewBox="0 0 40 40" fill="none" xmlns="http://www.w3.org/2000/svg">
<path d="M20 3.33337C10.8333 3.33337 3.33331 10.8334 3.33331 20C3.33331 29.1667 10.8333 36.6667 20 36.6667C29.1666 36.6667 36.6666 29.1667 36.6666 20C36.6666 10.8334 29.1666 3.33337 20 3.33337Z" fill="#751A1A"/>
<path d="M15 15.8334H11.6667V28.3334H15V15.8334Z" fill="white"/>
<path d="M13.3334 14.1667C12.3334 14.1667 11.6667 13.4167 11.6667 12.5C11.6667 11.5834 12.3334 10.8334 13.3334 10.8334C14.3334 10.8334 15 11.5834 15 12.5C15 13.4167 14.3334 14.1667 13.3334 14.1667Z" fill="white"/>
<path d="M29.1667 20.4167C29.1667 17.9167 27.0833 15.8334 24.5833 15.8334C23 15.8334 21.6667 16.5834 20.8333 17.75V15.8334H17.5V28.3334H20.8333V21.6667C20.8333 20.25 21.9167 19.1667 23.3333 19.1667C24.75 19.1667 25.8333 20.25 25.8333 21.6667V28.3334H29.1667C29.1667 28.3334 29.1667 20.75 29.1667 20.4167Z" fill="white"/>
</svg>
