<svg width="323" height="26" viewBox="0 0 323 26" fill="none" xmlns="http://www.w3.org/2000/svg">
<path d="M7.67 4.21004C10.41 4.21004 12.54 4.78004 14.06 5.92004C15.58 7.06004 16.34 8.75004 16.34 10.99C16.34 13.33 15.59 15.1 14.09 16.3C12.61 17.48 10.62 18.07 8.12 18.07H5.87V25H0.949997V4.21004H7.67ZM7.7 14.53C8.86 14.53 9.74 14.26 10.34 13.72C10.96 13.16 11.27 12.25 11.27 10.99C11.27 8.81005 10.05 7.72004 7.61 7.72004H5.87V14.53H7.7Z" fill="#141414"/>
<path d="M29.9555 20.38C29.9555 20.98 30.0355 21.42 30.1955 21.7C30.3755 21.98 30.6555 22.19 31.0355 22.33L30.0455 25.42C29.0655 25.34 28.2655 25.13 27.6455 24.79C27.0255 24.43 26.5455 23.87 26.2055 23.11C25.1655 24.71 23.5655 25.51 21.4055 25.51C19.8255 25.51 18.5655 25.05 17.6255 24.13C16.6855 23.21 16.2155 22.01 16.2155 20.53C16.2155 18.79 16.8555 17.46 18.1355 16.54C19.4155 15.62 21.2655 15.16 23.6855 15.16H25.3055V14.47C25.3055 13.53 25.1055 12.89 24.7055 12.55C24.3055 12.19 23.6055 12.01 22.6055 12.01C22.0855 12.01 21.4555 12.09 20.7155 12.25C19.9755 12.39 19.2155 12.59 18.4355 12.85L17.3555 9.73005C18.3555 9.35005 19.3755 9.06005 20.4155 8.86004C21.4755 8.66004 22.4555 8.56004 23.3555 8.56004C25.6355 8.56004 27.3055 9.03004 28.3655 9.97004C29.4255 10.91 29.9555 12.32 29.9555 14.2V20.38ZM22.7855 22.12C23.8655 22.12 24.7055 21.61 25.3055 20.59V17.77H24.1355C23.0555 17.77 22.2455 17.96 21.7055 18.34C21.1855 18.72 20.9255 19.31 20.9255 20.11C20.9255 20.75 21.0855 21.25 21.4055 21.61C21.7455 21.95 22.2055 22.12 22.7855 22.12Z" fill="#141414"/>
<path d="M47.1711 25H43.0611L42.8511 22.99C41.6911 24.67 40.0811 25.51 38.0211 25.51C36.5611 25.51 35.4511 25.07 34.6911 24.19C33.9511 23.31 33.5811 22.08 33.5811 20.5V9.07004H38.3211V19.9C38.3211 20.68 38.4411 21.23 38.6811 21.55C38.9411 21.85 39.3311 22 39.8511 22C40.8511 22 41.7111 21.38 42.4311 20.14V9.07004H47.1711V25Z" fill="#141414"/>
<path d="M55.1291 25.51C53.7491 25.51 52.6691 25.12 51.8891 24.34C51.1291 23.54 50.7491 22.41 50.7491 20.95V2.74004L55.4891 2.23004V20.77C55.4891 21.43 55.7591 21.76 56.2991 21.76C56.5791 21.76 56.8391 21.71 57.0791 21.61L58.0091 24.97C57.1491 25.33 56.1891 25.51 55.1291 25.51Z" fill="#141414"/>
<path d="M66.5588 8.56004C68.9988 8.56004 70.9088 9.31004 72.2888 10.81C73.6688 12.29 74.3588 14.37 74.3588 17.05C74.3588 18.75 74.0388 20.24 73.3988 21.52C72.7788 22.78 71.8788 23.76 70.6988 24.46C69.5388 25.16 68.1588 25.51 66.5588 25.51C64.1388 25.51 62.2288 24.77 60.8288 23.29C59.4488 21.79 58.7588 19.7 58.7588 17.02C58.7588 15.32 59.0688 13.84 59.6888 12.58C60.3288 11.3 61.2288 10.31 62.3888 9.61005C63.5688 8.91004 64.9588 8.56004 66.5588 8.56004ZM66.5588 12.04C65.5988 12.04 64.8788 12.45 64.3988 13.27C63.9188 14.07 63.6788 15.32 63.6788 17.02C63.6788 18.76 63.9088 20.03 64.3688 20.83C64.8488 21.63 65.5788 22.03 66.5588 22.03C67.5188 22.03 68.2388 21.63 68.7188 20.83C69.1988 20.01 69.4388 18.75 69.4388 17.05C69.4388 15.31 69.1988 14.04 68.7188 13.24C68.2588 12.44 67.5388 12.04 66.5588 12.04Z" fill="#141414"/>
<path d="M91.2275 17.05H89.3075V25H84.3875V4.21004H91.1975C94.0375 4.21004 96.1675 4.73004 97.5875 5.77004C99.0275 6.81004 99.7475 8.40004 99.7475 10.54C99.7475 11.88 99.4275 13 98.7875 13.9C98.1475 14.78 97.1375 15.53 95.7575 16.15L101.037 25H95.4875L91.2275 17.05ZM89.3075 13.66H91.3775C92.4775 13.66 93.2975 13.41 93.8375 12.91C94.3975 12.41 94.6775 11.62 94.6775 10.54C94.6775 9.54005 94.3775 8.81005 93.7775 8.35005C93.1975 7.89005 92.2975 7.66005 91.0775 7.66005H89.3075V13.66Z" fill="#BC3F3F"/>
<path d="M115.18 20.38C115.18 20.98 115.26 21.42 115.42 21.7C115.6 21.98 115.88 22.19 116.26 22.33L115.27 25.42C114.29 25.34 113.49 25.13 112.87 24.79C112.25 24.43 111.77 23.87 111.43 23.11C110.39 24.71 108.79 25.51 106.63 25.51C105.05 25.51 103.79 25.05 102.85 24.13C101.91 23.21 101.44 22.01 101.44 20.53C101.44 18.79 102.08 17.46 103.36 16.54C104.64 15.62 106.49 15.16 108.91 15.16H110.53V14.47C110.53 13.53 110.33 12.89 109.93 12.55C109.53 12.19 108.83 12.01 107.83 12.01C107.31 12.01 106.68 12.09 105.94 12.25C105.2 12.39 104.44 12.59 103.66 12.85L102.58 9.73005C103.58 9.35005 104.6 9.06005 105.64 8.86004C106.7 8.66004 107.68 8.56004 108.58 8.56004C110.86 8.56004 112.53 9.03004 113.59 9.97004C114.65 10.91 115.18 12.32 115.18 14.2V20.38ZM108.01 22.12C109.09 22.12 109.93 21.61 110.53 20.59V17.77H109.36C108.28 17.77 107.47 17.96 106.93 18.34C106.41 18.72 106.15 19.31 106.15 20.11C106.15 20.75 106.31 21.25 106.63 21.61C106.97 21.95 107.43 22.12 108.01 22.12Z" fill="#BC3F3F"/>
<path d="M126.246 5.74004C125.566 5.74004 125.076 5.90004 124.776 6.22004C124.476 6.54004 124.326 7.08004 124.326 7.84004V9.07004H128.076L127.566 12.37H124.326V25H119.586V12.37H117.186V9.07004H119.586V7.66005C119.586 6.06004 120.106 4.76004 121.146 3.76005C122.206 2.74004 123.716 2.23004 125.676 2.23004C127.256 2.23004 128.706 2.57004 130.026 3.25004L128.736 6.34004C127.936 5.94004 127.106 5.74004 126.246 5.74004Z" fill="#BC3F3F"/>
<path d="M141.577 20.38C141.577 20.98 141.657 21.42 141.817 21.7C141.997 21.98 142.277 22.19 142.657 22.33L141.667 25.42C140.687 25.34 139.887 25.13 139.267 24.79C138.647 24.43 138.167 23.87 137.827 23.11C136.787 24.71 135.187 25.51 133.027 25.51C131.447 25.51 130.187 25.05 129.247 24.13C128.307 23.21 127.837 22.01 127.837 20.53C127.837 18.79 128.477 17.46 129.757 16.54C131.037 15.62 132.887 15.16 135.307 15.16H136.927V14.47C136.927 13.53 136.727 12.89 136.327 12.55C135.927 12.19 135.227 12.01 134.227 12.01C133.707 12.01 133.077 12.09 132.337 12.25C131.597 12.39 130.837 12.59 130.057 12.85L128.977 9.73005C129.977 9.35005 130.997 9.06005 132.037 8.86004C133.097 8.66004 134.077 8.56004 134.977 8.56004C137.257 8.56004 138.927 9.03004 139.987 9.97004C141.047 10.91 141.577 12.32 141.577 14.2V20.38ZM134.407 22.12C135.487 22.12 136.327 21.61 136.927 20.59V17.77H135.757C134.677 17.77 133.867 17.96 133.327 18.34C132.807 18.72 132.547 19.31 132.547 20.11C132.547 20.75 132.707 21.25 133.027 21.61C133.367 21.95 133.827 22.12 134.407 22.12Z" fill="#BC3F3F"/>
<path d="M159.242 16.72C159.242 17.38 159.212 17.95 159.152 18.43H149.282C149.442 19.77 149.822 20.71 150.422 21.25C151.022 21.79 151.852 22.06 152.912 22.06C153.552 22.06 154.172 21.95 154.772 21.73C155.372 21.49 156.022 21.13 156.722 20.65L158.672 23.29C156.812 24.77 154.742 25.51 152.462 25.51C149.882 25.51 147.902 24.75 146.522 23.23C145.142 21.71 144.452 19.67 144.452 17.11C144.452 15.49 144.742 14.04 145.322 12.76C145.902 11.46 146.752 10.44 147.872 9.70004C148.992 8.94004 150.332 8.56004 151.892 8.56004C154.192 8.56004 155.992 9.28004 157.292 10.72C158.592 12.16 159.242 14.16 159.242 16.72ZM154.592 15.37C154.552 12.93 153.692 11.71 152.012 11.71C151.192 11.71 150.552 12.01 150.092 12.61C149.652 13.21 149.382 14.2 149.282 15.58H154.592V15.37Z" fill="#BC3F3F"/>
<path d="M166.135 25.51C164.755 25.51 163.675 25.12 162.895 24.34C162.135 23.54 161.755 22.41 161.755 20.95V2.74004L166.495 2.23004V20.77C166.495 21.43 166.765 21.76 167.305 21.76C167.585 21.76 167.845 21.71 168.085 21.61L169.015 24.97C168.155 25.33 167.195 25.51 166.135 25.51Z" fill="#BC3F3F"/>
<path d="M184.74 4.21004C187.48 4.21004 189.61 4.78004 191.13 5.92004C192.65 7.06004 193.41 8.75004 193.41 10.99C193.41 13.33 192.66 15.1 191.16 16.3C189.68 17.48 187.69 18.07 185.19 18.07H182.94V25H178.02V4.21004H184.74ZM184.77 14.53C185.93 14.53 186.81 14.26 187.41 13.72C188.03 13.16 188.34 12.25 188.34 10.99C188.34 8.81005 187.12 7.72004 184.68 7.72004H182.94V14.53H184.77Z" fill="#141414"/>
<path d="M208.9 16.72C208.9 17.38 208.87 17.95 208.81 18.43H198.94C199.1 19.77 199.48 20.71 200.08 21.25C200.68 21.79 201.51 22.06 202.57 22.06C203.21 22.06 203.83 21.95 204.43 21.73C205.03 21.49 205.68 21.13 206.38 20.65L208.33 23.29C206.47 24.77 204.4 25.51 202.12 25.51C199.54 25.51 197.56 24.75 196.18 23.23C194.8 21.71 194.11 19.67 194.11 17.11C194.11 15.49 194.4 14.04 194.98 12.76C195.56 11.46 196.41 10.44 197.53 9.70004C198.65 8.94004 199.99 8.56004 201.55 8.56004C203.85 8.56004 205.65 9.28004 206.95 10.72C208.25 12.16 208.9 14.16 208.9 16.72ZM204.25 15.37C204.21 12.93 203.35 11.71 201.67 11.71C200.85 11.71 200.21 12.01 199.75 12.61C199.31 13.21 199.04 14.2 198.94 15.58H204.25V15.37Z" fill="#141414"/>
<path d="M220.203 8.62005C220.783 8.62005 221.313 8.69005 221.793 8.83004L221.043 13.42C220.443 13.28 219.963 13.21 219.603 13.21C218.663 13.21 217.943 13.54 217.443 14.2C216.963 14.84 216.583 15.81 216.303 17.11V25H211.563V9.07004H215.703L216.093 12.16C216.453 11.06 216.993 10.2 217.713 9.58005C218.453 8.94005 219.283 8.62005 220.203 8.62005Z" fill="#141414"/>
<path d="M232.934 8.56004C234.314 8.56004 235.394 8.98004 236.174 9.82004C236.954 10.66 237.344 11.84 237.344 13.36V25H232.604V14.17C232.604 13.37 232.474 12.82 232.214 12.52C231.974 12.2 231.604 12.04 231.104 12.04C230.144 12.04 229.224 12.73 228.344 14.11V25H223.604V9.07004H227.744L228.074 10.96C228.754 10.16 229.484 9.56005 230.264 9.16005C231.064 8.76004 231.954 8.56004 232.934 8.56004Z" fill="#141414"/>
<path d="M247.819 8.56004C250.259 8.56004 252.169 9.31004 253.549 10.81C254.929 12.29 255.619 14.37 255.619 17.05C255.619 18.75 255.299 20.24 254.659 21.52C254.039 22.78 253.139 23.76 251.959 24.46C250.799 25.16 249.419 25.51 247.819 25.51C245.399 25.51 243.489 24.77 242.089 23.29C240.709 21.79 240.019 19.7 240.019 17.02C240.019 15.32 240.329 13.84 240.949 12.58C241.589 11.3 242.489 10.31 243.649 9.61005C244.829 8.91004 246.219 8.56004 247.819 8.56004ZM247.819 12.04C246.859 12.04 246.139 12.45 245.659 13.27C245.179 14.07 244.939 15.32 244.939 17.02C244.939 18.76 245.169 20.03 245.629 20.83C246.109 21.63 246.839 22.03 247.819 22.03C248.779 22.03 249.499 21.63 249.979 20.83C250.459 20.01 250.699 18.75 250.699 17.05C250.699 15.31 250.459 14.04 249.979 13.24C249.519 12.44 248.799 12.04 247.819 12.04Z" fill="#141414"/>
<path d="M276.048 8.56004C277.308 8.56004 278.318 8.99004 279.078 9.85005C279.838 10.69 280.218 11.86 280.218 13.36V25H275.478V14.17C275.478 12.75 275.028 12.04 274.128 12.04C273.628 12.04 273.188 12.21 272.808 12.55C272.428 12.89 272.058 13.41 271.698 14.11V25H266.958V14.17C266.958 12.75 266.508 12.04 265.608 12.04C265.128 12.04 264.688 12.22 264.288 12.58C263.908 12.92 263.538 13.43 263.178 14.11V25H258.438V9.07004H262.578L262.908 10.93C263.528 10.13 264.208 9.54005 264.948 9.16005C265.708 8.76004 266.568 8.56004 267.528 8.56004C268.428 8.56004 269.198 8.78004 269.838 9.22005C270.498 9.66005 270.978 10.28 271.278 11.08C271.918 10.22 272.618 9.59004 273.378 9.19005C274.158 8.77004 275.048 8.56004 276.048 8.56004Z" fill="#141414"/>
<path d="M288.52 9.07004V25H283.78V9.07004H288.52ZM286.12 0.670044C286.94 0.670044 287.61 0.930044 288.13 1.45004C288.67 1.95004 288.94 2.59004 288.94 3.37004C288.94 4.15004 288.67 4.80004 288.13 5.32004C287.61 5.82004 286.94 6.07004 286.12 6.07004C285.3 6.07004 284.63 5.82004 284.11 5.32004C283.59 4.80004 283.33 4.15004 283.33 3.37004C283.33 2.59004 283.59 1.95004 284.11 1.45004C284.63 0.930044 285.3 0.670044 286.12 0.670044Z" fill="#141414"/>
<path d="M304.907 20.38C304.907 20.98 304.987 21.42 305.147 21.7C305.327 21.98 305.607 22.19 305.987 22.33L304.997 25.42C304.017 25.34 303.217 25.13 302.597 24.79C301.977 24.43 301.497 23.87 301.157 23.11C300.117 24.71 298.517 25.51 296.357 25.51C294.777 25.51 293.517 25.05 292.577 24.13C291.637 23.21 291.167 22.01 291.167 20.53C291.167 18.79 291.807 17.46 293.087 16.54C294.367 15.62 296.217 15.16 298.637 15.16H300.257V14.47C300.257 13.53 300.057 12.89 299.657 12.55C299.257 12.19 298.557 12.01 297.557 12.01C297.037 12.01 296.407 12.09 295.667 12.25C294.927 12.39 294.167 12.59 293.387 12.85L292.307 9.73005C293.307 9.35005 294.327 9.06005 295.367 8.86004C296.427 8.66004 297.407 8.56004 298.307 8.56004C300.587 8.56004 302.257 9.03004 303.317 9.97004C304.377 10.91 304.907 12.32 304.907 14.2V20.38ZM297.737 22.12C298.817 22.12 299.657 21.61 300.257 20.59V17.77H299.087C298.007 17.77 297.197 17.96 296.657 18.34C296.137 18.72 295.877 19.31 295.877 20.11C295.877 20.75 296.037 21.25 296.357 21.61C296.697 21.95 297.157 22.12 297.737 22.12Z" fill="#141414"/>
<path d="M318.012 8.56004C319.392 8.56004 320.472 8.98004 321.252 9.82004C322.032 10.66 322.422 11.84 322.422 13.36V25H317.682V14.17C317.682 13.37 317.552 12.82 317.292 12.52C317.052 12.2 316.682 12.04 316.182 12.04C315.222 12.04 314.302 12.73 313.422 14.11V25H308.682V9.07004H312.822L313.152 10.96C313.832 10.16 314.562 9.56005 315.342 9.16005C316.142 8.76004 317.032 8.56004 318.012 8.56004Z" fill="#141414"/>
</svg>
